<?xml version="1.0" encoding="utf-8"?>
<!-- Generator: Adobe Illustrator 16.0.0, SVG Export Plug-In . SVG Version: 6.00 Build 0)  -->
<!DOCTYPE svg PUBLIC "-//W3C//DTD SVG 1.1//EN" "http://www.w3.org/Graphics/SVG/1.1/DTD/svg11.dtd">
<svg version="1.1" xmlns="http://www.w3.org/2000/svg" xmlns:xlink="http://www.w3.org/1999/xlink" x="0px" y="0px" width="396px"
	 height="304.665px" viewBox="0 0 396 304.665" enable-background="new 0 0 396 304.665" xml:space="preserve">
<g id="Background_2">
</g>
<g id="Background_1" display="none">
	<path display="inline" opacity="0.4" fill="#D4E8FF" d="M137.476,2.562C94.623,6.807,47.167-14.525,8.789,13.577
		C-27.262,39.974-30.858,92.405-16.28,129.846c35.532,91.255,154.874,72.725,229.623,44.688
		C281.96,148.797,381.261,66.155,338.028-18.393c-16.464-32.197-56.957-54.334-93.255-48.791
		C194.727-59.541,189.179-2.56,137.476,2.562z"/>
</g>
<g id="Objects">
	<g>
		<ellipse opacity="0.15" fill="#14365B" cx="197.333" cy="285.905" rx="193.888" ry="11.323"/>
		<g>
			<path fill="#0F264C" d="M165.206,20.368c0.067,11.85-8.427,11.729-8.252,8.046s-1.929-12.484-0.011-11.641
				C158.861,17.616,165.176,15.125,165.206,20.368z"/>
			<g>
				<path fill="#0F264C" d="M159.868,41.828c1.165-0.095,3.516,0.992,3.723,4.091c0.207,3.1,2.592,4.489,2.592,4.489
					s-3.891,0.47-6.444-1.547c-2.071-1.635-2.954-5.199-1.904-6.019S159.868,41.828,159.868,41.828z"/>
				<path fill="#0F264C" d="M158.349,33.406c2.044,1.775,3.829,6.446-0.674,8.669c-4.503,2.223-11.597-2.945-11.597-2.945
					l7.781-3.614L158.349,33.406z"/>
				<path fill="#0053CC" d="M160.553,42.257c-0.078-0.628-0.349-1.403-0.54-1.891c-0.096-0.247-0.395-0.342-0.615-0.194
					l-2.763,1.847c-0.241,0.161-0.249,0.511-0.013,0.678c0.344,0.244,0.828,0.556,1.279,0.737c0.65,0.261,1.949-0.476,2.459-0.792
					C160.493,42.56,160.572,42.412,160.553,42.257z"/>
			</g>
			<path fill="#0F264C" d="M130.742,37.349c-1.109-0.369-3.651,0.128-4.587,3.09s-3.583,3.745-3.583,3.745s3.668,1.38,6.627,0.027
				c2.4-1.097,4.103-4.35,3.277-5.395C131.65,37.771,130.742,37.349,130.742,37.349z"/>
			<path fill="#0F264C" d="M141.767,17c-4.052,1.096-9.5,5.894-7.086,11.785c-2.383,1.631-5.45,6.317-1.867,9.324
				c3.847,3.229,13.318-1.303,13.318-1.303l0.068-1.538l1.083-11.458L141.767,17z"/>
			<path fill="#0053CC" d="M129.974,37.603c0.225-0.592,0.672-1.28,0.973-1.709c0.152-0.217,0.464-0.238,0.644-0.043l2.246,2.45
				c0.195,0.213,0.12,0.555-0.148,0.662c-0.393,0.155-0.936,0.344-1.417,0.413c-0.694,0.099-1.78-0.925-2.201-1.354
				C129.961,37.911,129.919,37.749,129.974,37.603z"/>
			<path fill="#FF8B7B" d="M166.41,58.737c1.911,1.483,4.015,3.064,6.101,4.5c2.094,1.463,4.214,2.887,6.381,4.218
				c2.165,1.336,4.369,2.575,6.588,3.754l1.678,0.851l1.695,0.783c0.564,0.271,1.135,0.508,1.707,0.732l0.857,0.348
				c0.282,0.114,0.598,0.248,0.781,0.3c0.857,0.301,2.02,0.515,3.191,0.692c1.186,0.172,2.424,0.292,3.68,0.375
				c2.516,0.165,5.096,0.234,7.688,0.247c2.594,0.03,5.203-0.002,7.816-0.077c2.613-0.04,5.248-0.143,7.848-0.223l0.494,3.925
				c-5.266,1.083-10.529,1.826-15.895,2.356c-2.684,0.242-5.385,0.422-8.146,0.44c-1.383,0.005-2.782-0.027-4.223-0.131
				c-1.449-0.108-2.912-0.286-4.581-0.752c-0.454-0.122-0.751-0.235-1.089-0.35l-0.996-0.345c-0.669-0.225-1.33-0.462-1.973-0.729
				l-1.942-0.78l-1.901-0.844c-2.515-1.153-4.974-2.403-7.322-3.805c-2.361-1.385-4.68-2.824-6.925-4.369
				c-2.249-1.578-4.402-3.125-6.6-4.959L166.41,58.737z"/>
			<path fill="#14365B" d="M156.037,54.25c2.485-1.942,12.741,4.41,15.856,7.059l-2.273,13.73c0,0-14.747-6.179-15.635-10.407
				C153.06,60.229,154.15,55.724,156.037,54.25z"/>
			<path fill="#FF8B7B" d="M221.292,75.578l6.18-4.795l0.492,7.411c0,0-4.266,2.639-7.076,1.012L221.292,75.578z"/>
			<polygon fill="#FF8B7B" points="233.026,70.054 236.184,73.577 227.963,78.194 227.471,70.783 			"/>
			<polygon fill="#FF8B7B" points="115.608,276.137 123.399,276.712 126.249,258.782 118.458,258.207 			"/>
			<polygon fill="#FF8B7B" points="60.505,251.074 67.113,255.24 78.887,241.276 72.278,237.11 			"/>
			<path fill="#14365B" d="M69.198,253.749l-6.184-6.229c-0.225-0.227-0.565-0.255-0.818-0.066l-5.632,4.183
				c-0.584,0.434-0.631,1.354-0.104,1.867c2.193,2.135,3.36,3.055,6.079,5.793c1.673,1.686,3.942,4.321,6.252,6.647
				c2.26,2.276,4.734,0.167,3.981-1.009c-3.379-5.272-2.772-7.238-2.996-9.922C69.737,254.529,69.527,254.08,69.198,253.749z"/>
			<path fill="#14365B" d="M123.919,275.601h-8.776c-0.319,0-0.591,0.222-0.653,0.533l-1.384,6.944
				c-0.144,0.72,0.438,1.401,1.176,1.389c3.063-0.053,4.547-0.231,8.407-0.231c2.375,0,9.041,0.246,12.32,0.246
				c3.207,0,3.633-3.242,2.284-3.536c-6.049-1.316-10.127-3.132-12.093-4.864C124.843,275.769,124.386,275.601,123.919,275.601z"/>
			<g>
				<polygon fill="#EA7063" points="126.246,258.787 124.664,268.752 116.984,267.46 118.452,258.212 				"/>
				<polygon fill="#EA7063" points="72.273,237.113 78.884,241.281 74.012,247.056 67.25,243.067 				"/>
			</g>
			<path fill="#14365B" d="M121.533,95.797c6.02,1.17,18.79,3.66,31.14,6.07c16.09-43.57,12.59-44.98,12.59-44.98
				s-3.09-1.75-7.01-3.3c-0.15-0.06-0.29-0.11-0.42-0.16c-1.98-0.73-2.4-0.84-5.06-1.62c-4.58-1.09-8.85-1.98-14.14-2.75
				c-0.34-0.05-0.68-0.1-1.01-0.14c-0.96-0.12-1.91-0.22-2.83-0.31c-0.62-0.07-1.24-0.11-1.83-0.15c-0.7-0.04-1.38-0.08-2.02-0.11
				c-3.42-0.17-5.87-0.12-5.87-0.12C126.063,75.417,124.523,83.227,121.533,95.797z"/>
			<path fill="#FF8B7B" d="M143.139,33.406c0.006,4.724-0.728,13.234-4.502,15.65c0,0,0.345,4.858,8.799,6.504
				c9.296,1.811,5.341-3.75,5.341-3.75c-4.837-2.2-3.973-5.939-2.401-9.302L143.139,33.406z"/>
			<path fill="#EA7063" d="M146.089,37.119l4.284,5.385c-0.375,0.795-0.705,1.612-0.925,2.425c-1.884-0.658-4.132-3.304-3.942-5.374
				C145.601,38.523,145.833,37.559,146.089,37.119z"/>
			<path fill="#FF8B7B" d="M142.689,22.571c-1.013,7.687-1.606,10.918,1.471,15.564c4.628,6.988,14.291,6.552,17.58-0.677
				c2.961-6.507,4.12-17.984-2.726-22.455C152.269,10.598,143.702,14.884,142.689,22.571z"/>
			<path fill="#0F264C" d="M167.722,10.389c0.112,1.458,0.042,2.664-0.27,3.641c-0.07-0.381-0.158-0.774-0.286-1.197
				c-2.744-9.054-15.084-6.9-18.806-3.008c-6.006-1.714-11.712-0.345-10.944,6.966c0.261,2.487,1.006,4.127,1.95,5.205
				c-0.932,2.579,0.032,6.688,3.068,6.807c4.32,0.169,8.421-5.544,10.071-8.682c2.949,0.503,7.316,0.988,10.597,0.192
				c0.554,0.337,0.976,0.562,0.976,0.562C167.597,19.042,170.25,17.236,167.722,10.389z"/>
			<path fill="#FF8B7B" d="M140.037,27.816c-0.151,1.6,0.452,3.121,1.31,4.125c1.292,1.51,3.04,0.621,3.604-1.175
				c0.508-1.617,0.448-4.35-1.292-5.203C141.943,24.722,140.208,25.986,140.037,27.816z"/>
			<path fill="#0053CC" d="M152.204,101.865c0,0,0.12,61.82-4.938,85.106c-5.26,24.22-20.728,79.316-20.728,79.316l-11.219-1.454
				c0,0,8.77-55.657,12.506-79.723c4.073-26.235,1.574-87.688,1.574-87.688L152.204,101.865z"/>
			<polygon fill="#14365B" points="128.44,267.262 113.416,265.314 114.055,260 131.111,262 			"/>
			<path fill="#0053CC" d="M144.454,100.263c0,0-16.772,51.095-25.096,80.523c-8.783,31.048-42.441,65.39-42.441,65.39l-9.656-5.578
				c0,0,22.981-32.598,31.458-61.57c17.206-58.814,10.135-71.273,22.818-83.229L144.454,100.263z"/>
			<polygon fill="#14365B" points="78.483,247.727 65.077,239.983 68.417,235.209 83.305,243.417 			"/>
			
				<ellipse transform="matrix(-0.9816 -0.1912 0.1912 -0.9816 301.0288 83.2078)" fill="#0F264C" cx="154.529" cy="27.081" rx="0.746" ry="1.141"/>
			
				<ellipse transform="matrix(-0.9816 -0.1912 0.1912 -0.9816 314.6208 87.243)" fill="#0F264C" cx="161.52" cy="28.442" rx="0.746" ry="1.141"/>
			<path fill="#0F264C" d="M161.553,27.322l1.569-0.139C163.122,27.183,162.133,28.195,161.553,27.322z"/>
			<path fill="#FF5652" d="M158.733,29.003c0,0,0.531,2.867,1.436,4.376c-0.965,0.603-2.286-0.016-2.286-0.016L158.733,29.003z"/>
			<path fill="#0F264C" d="M155.268,35.379c-0.012,0-0.023-0.001-0.035-0.003c-2.91-0.567-3.855-2.822-3.894-2.917
				c-0.039-0.094,0.007-0.202,0.102-0.241c0.095-0.038,0.203,0.007,0.241,0.102c0.009,0.021,0.915,2.166,3.622,2.693
				c0.101,0.02,0.166,0.117,0.146,0.217C155.432,35.317,155.354,35.379,155.268,35.379z"/>
			<path fill="#0F264C" d="M152.2,24.28c-0.102,0-0.203-0.042-0.275-0.123c-0.137-0.152-0.124-0.386,0.028-0.522
				c1.524-1.367,3.18-0.942,3.249-0.923c0.197,0.053,0.314,0.256,0.261,0.454c-0.053,0.196-0.251,0.315-0.452,0.262l0,0
				c-0.055-0.014-1.349-0.332-2.564,0.759C152.376,24.249,152.288,24.28,152.2,24.28z"/>
			<path fill="#0F264C" d="M164.66,25.704c-0.145,0-0.282-0.085-0.341-0.228c-0.635-1.523-1.973-1.787-1.986-1.789
				c-0.201-0.037-0.334-0.23-0.297-0.431c0.037-0.202,0.233-0.334,0.431-0.297c0.071,0.013,1.748,0.342,2.535,2.231
				c0.079,0.189-0.01,0.405-0.199,0.484C164.755,25.694,164.707,25.704,164.66,25.704z"/>
			<path fill="#0053CC" d="M71.504,257.378c-0.017,0-0.035,0-0.052-0.001c-0.99-0.05-2.049-1.544-2.593-2.431
				c-0.039-0.063-0.036-0.143,0.006-0.203c0.043-0.061,0.119-0.09,0.189-0.074c0.313,0.065,3.071,0.671,3.42,1.605
				c0.055,0.147,0.081,0.376-0.109,0.627C72.125,257.218,71.835,257.378,71.504,257.378z M69.416,255.132
				c0.766,1.156,1.52,1.849,2.055,1.875c0.228,0.021,0.424-0.096,0.6-0.329c0.095-0.125,0.081-0.212,0.058-0.274
				C71.944,255.911,70.512,255.406,69.416,255.132z"/>
			<path fill="#0053CC" d="M69.866,255.122c-0.359,0-0.678-0.032-0.899-0.095c-0.063-0.018-0.113-0.067-0.129-0.131
				c-0.017-0.064,0.002-0.132,0.049-0.178c0.066-0.066,1.6-1.574,2.727-1.574c0.026,0,0.051,0,0.077,0.002
				c0.301,0.02,0.545,0.147,0.727,0.382c0.287,0.368,0.168,0.663,0.072,0.806C72.123,254.88,70.847,255.122,69.866,255.122z
				 M69.41,254.735c0.947,0.109,2.468-0.154,2.772-0.607c0.05-0.075,0.089-0.185-0.057-0.373c-0.116-0.148-0.266-0.227-0.459-0.239
				C70.998,253.478,69.972,254.238,69.41,254.735z"/>
			<path fill="#0053CC" d="M126.789,276.967c-0.861,0-1.789-0.148-2.446-0.28c-0.077-0.016-0.136-0.079-0.146-0.157
				c-0.011-0.078,0.029-0.154,0.1-0.189c0.364-0.185,3.58-1.783,4.503-1.24c0.177,0.104,0.274,0.275,0.282,0.494
				c0.013,0.369-0.116,0.671-0.384,0.897C128.277,276.848,127.56,276.967,126.789,276.967z M124.967,276.425
				c1.705,0.284,2.991,0.209,3.491-0.216c0.179-0.151,0.262-0.349,0.253-0.602c-0.004-0.117-0.053-0.161-0.1-0.189
				C128.118,275.129,126.288,275.808,124.967,276.425z"/>
			<path fill="#0053CC" d="M124.379,276.689c-0.04,0-0.079-0.012-0.111-0.037c-0.054-0.04-0.081-0.106-0.072-0.173
				c0.019-0.139,0.473-3.326,2.217-3.326c0.049,0,0.099,0.002,0.15,0.008c0.498,0.051,0.641,0.301,0.672,0.503
				c0.139,0.879-1.805,2.58-2.782,3.01C124.43,276.685,124.405,276.689,124.379,276.689z M126.418,273.523
				c-1.126,0-1.627,1.846-1.791,2.645c1.001-0.587,2.326-1.92,2.243-2.446c-0.006-0.04-0.025-0.16-0.344-0.193
				C126.49,273.525,126.454,273.523,126.418,273.523z"/>
			<path fill="#0F264C" d="M154.562,25.96l1.569-0.139C156.13,25.821,155.143,26.833,154.562,25.96z"/>
			<path fill="#FF8B7B" d="M147.693,62.204c-13.03-4.93-17.06-12.31-16.75-13.86v-0.01c0.64,0.03,1.32,0.07,2.02,0.12
				c0.11,0.01,0.22,0.02,0.34,0.02c0.48,0.04,0.99,0.07,1.49,0.13c0.92,0.08,1.87,0.18,2.83,0.31c0.33,0.04,0.67,0.09,1.01,0.14
				c5.29,0.77,9.62,1.43,14.14,2.75c2.12,0.62,2.82,0.82,4.01,1.24c0.31,0.11,0.65,0.23,1.05,0.38c0.13,0.05,0.27,0.1,0.42,0.16
				C159.253,55.813,159.023,60.394,147.693,62.204z"/>
			<path fill="#0053CC" d="M147.693,62.204c-13.03-4.93-17.06-12.31-16.75-13.86v-0.01c0.64,0.03,1.32,0.07,2.02,0.12
				c0.11,0.01,0.22,0.02,0.34,0.02c2.64,3.75,8.42,8.93,14.31,9.64c4.74-1.03,9.21-2.14,9.17-5.07c0.31,0.11,0.65,0.23,1.05,0.38
				c0.13,0.05,0.27,0.1,0.42,0.16C159.253,55.813,159.023,60.394,147.693,62.204z"/>
			<path fill="#14365B" d="M121.425,93.88l-1.948,2.514c-0.151,0.195,0.063,0.465,0.422,0.536l32.659,6.362
				c0.281,0.055,0.541-0.038,0.592-0.211l0.824-2.733c0.057-0.189-0.155-0.4-0.462-0.46l-31.536-6.143
				C121.746,93.7,121.522,93.755,121.425,93.88z"/>
			<path fill="#0053CC" d="M124.974,98.232l-0.845-0.165c-0.168-0.033-0.279-0.145-0.247-0.248l1.102-3.545
				c0.032-0.104,0.196-0.162,0.364-0.129l0.845,0.165c0.168,0.033,0.279,0.145,0.247,0.248l-1.102,3.544
				C125.306,98.207,125.142,98.265,124.974,98.232z"/>
			<path fill="#FF8B7B" d="M127.189,60.279c-0.374,2.37-0.741,4.956-0.992,7.456c-0.269,2.521-0.495,5.044-0.618,7.565
				c-0.062,1.26-0.102,2.519-0.112,3.773c-0.04,1.256-0.025,2.505-0.008,3.753c0.042,2.471,0.265,5.011,0.57,7.318
				c0.051,0.516,0.445,1.432,0.983,2.333c0.544,0.915,1.237,1.855,1.994,2.777c1.526,1.845,3.28,3.652,5.117,5.393
				c1.826,1.76,3.749,3.462,5.723,5.115c1.949,1.675,3.984,3.314,5.978,4.903l-2.146,3.323c-4.724-2.582-9.15-5.489-13.461-8.788
				c-2.132-1.675-4.229-3.439-6.197-5.499c-0.982-1.036-1.941-2.137-2.836-3.413c-0.883-1.286-1.744-2.73-2.21-4.793l-0.372-2.12
				c-0.129-0.689-0.218-1.376-0.3-2.063c-0.193-1.376-0.308-2.747-0.419-4.118c-0.194-2.737-0.274-5.472-0.182-8.185
				c0.078-2.714,0.22-5.418,0.491-8.109c0.296-2.71,0.61-5.322,1.153-8.11L127.189,60.279z"/>
			<path fill="#14365B" d="M120.552,50.292c-4.275,3.466-3.256,13.74-3.256,13.74l14.399,4.742c0,0-0.659-11.847-1.372-16.108
				C129.476,47.601,124.756,46.884,120.552,50.292z"/>
			<path fill="#FF8B7B" d="M144.112,110.026l6.509-2.415l-1.001,6.188c0,0-4.72,1.697-7.132-0.477L144.112,110.026z"/>
			<polygon fill="#FF8B7B" points="158.371,108.523 158.371,113.306 149.62,113.799 150.621,107.611 			"/>
			<path fill="#0053CC" d="M150.127,103.131l-0.845-0.165c-0.168-0.033-0.279-0.145-0.247-0.248l1.102-3.545
				c0.032-0.104,0.196-0.162,0.364-0.129l0.845,0.165c0.168,0.033,0.279,0.145,0.247,0.249l-1.102,3.544
				C150.459,103.106,150.295,103.164,150.127,103.131z"/>
			<path fill="#0053CC" d="M137.55,100.682l-0.845-0.165c-0.168-0.033-0.279-0.145-0.247-0.248l1.102-3.544
				c0.032-0.104,0.196-0.162,0.364-0.129l0.845,0.165c0.168,0.033,0.279,0.145,0.247,0.248l-1.102,3.545
				C137.882,100.656,137.718,100.714,137.55,100.682z"/>
		</g>
		<g>
			<g>
				<path fill="#318FFF" d="M73.863,158.976l51.84,113.224c2.451,5.349,8.835,7.723,14.185,5.271l8.23-3.766l190.568-87.248
					c5.35-2.451,7.725-8.826,5.273-14.175L298.157,72.254l-6.039-13.205c-2.451-5.349-8.824-7.713-14.174-5.272L79.135,144.802
					C73.787,147.252,71.422,153.626,73.863,158.976z"/>
				
					<rect x="96.783" y="152.183" transform="matrix(-0.9092 0.4163 -0.4163 -0.9092 490.0502 258.8763)" fill="#45A2FF" width="240.039" height="61.358"/>
				
					<rect x="163.876" y="161.39" transform="matrix(-0.9092 0.4163 -0.4163 -0.9092 529.4388 229.3014)" fill="#DCE9FF" width="151.69" height="21.959"/>
				
					<rect x="82.079" y="134.378" transform="matrix(-0.9092 0.4163 -0.4163 -0.9092 448.6056 203.6791)" fill="#0053CC" width="240.039" height="32.736"/>
			</g>
			<g>
				<path fill="#318FFF" d="M103.504,160.399l44.613,113.306l190.568-87.248c5.35-2.451,7.725-8.826,5.273-14.175L298.157,72.254
					l-188.616,74.274C104.068,148.681,101.352,154.927,103.504,160.399z"/>
				
					<rect x="353.683" y="126.512" transform="matrix(0.3314 0.9435 -0.9435 0.3314 357.8691 -250.9977)" fill="#318FFF" width="4.709" height="1"/>
				
					<rect x="341.192" y="110.66" transform="matrix(0.3314 0.9435 -0.9435 0.3314 339.1952 -256.3442)" fill="#318FFF" width="18.558" height="1"/>
				<path fill="#318FFF" d="M116.774,146.916l206.295-72.449c5.551-1.949,11.688,0.998,13.637,6.548l41.262,117.492
					c1.949,5.551-0.998,11.688-6.549,13.637l-206.294,72.449c-5.551,1.949-11.687-0.998-13.636-6.548l-41.263-117.492
					C108.276,155.002,111.223,148.865,116.774,146.916z"/>
				
					<rect x="128.211" y="164.218" transform="matrix(-0.9435 0.3313 -0.3313 -0.9435 545.8274 289.5473)" fill="#45A2FF" width="240.04" height="54.17"/>
				
					<rect x="278.447" y="109.121" transform="matrix(-0.9435 0.3313 -0.3313 -0.9435 626.8181 119.1003)" fill="#DCE9FF" width="49.62" height="7.725"/>
				
					<rect x="318.73" y="196.915" transform="matrix(-0.9435 0.3314 -0.3314 -0.9435 724.061 274.4202)" fill="#DCE9FF" width="39.814" height="4.038"/>
				
					<rect x="310.127" y="206.107" transform="matrix(-0.9435 0.3313 -0.3313 -0.9435 721.5493 293.2349)" fill="#DCE9FF" width="51.302" height="4.038"/>
				
					<rect x="163.235" y="257.406" transform="matrix(-0.9435 0.3314 -0.3314 -0.9435 428.911 450.371)" fill="#DCE9FF" width="25.65" height="8.691"/>
				<g>
					<path fill="#DCE9FF" d="M316.118,183.17l28.27-9.928c3.111-1.093,4.746-4.5,3.654-7.61l0,0c-1.092-3.11-4.5-4.746-7.611-3.654
						l-28.268,9.928c-3.111,1.093-4.746,4.5-3.654,7.61l0,0C309.6,182.626,313.008,184.263,316.118,183.17z"/>
					<path fill="#DCE9FF" d="M267.715,200.169l28.268-9.928c3.111-1.093,4.748-4.5,3.654-7.61l0,0
						c-1.092-3.11-4.5-4.747-7.609-3.654l-28.27,9.928c-3.111,1.093-4.746,4.5-3.654,7.61l0,0
						C261.196,199.625,264.604,201.262,267.715,200.169z"/>
					<path fill="#DCE9FF" d="M219.311,217.168l28.268-9.928c3.111-1.093,4.748-4.5,3.654-7.61l0,0
						c-1.092-3.11-4.498-4.747-7.609-3.654l-28.27,9.928c-3.109,1.093-4.746,4.5-3.654,7.61l0,0
						C212.793,216.624,216.2,218.261,219.311,217.168z"/>
					<path fill="#DCE9FF" d="M170.907,234.167l28.27-9.928c3.109-1.093,4.746-4.5,3.654-7.61l0,0c-1.094-3.11-4.5-4.747-7.611-3.654
						l-28.268,9.928c-3.111,1.093-4.747,4.5-3.654,7.61l0,0C164.389,233.623,167.796,235.26,170.907,234.167z"/>
				</g>
				<path fill="#0053CC" d="M313.614,160.433l25.15-8.832c2.139-0.751,3.264-3.094,2.512-5.231l-5.24-14.923
					c-0.75-2.138-3.092-3.262-5.23-2.511l-25.15,8.832c-2.139,0.751-3.264,3.093-2.512,5.231l5.24,14.922
					C309.133,160.06,311.475,161.184,313.614,160.433z"/>
				<path fill="#DCE9FF" d="M165.359,175.88c-2.138,0-4.266-0.479-6.25-1.433c-3.483-1.673-6.106-4.602-7.386-8.247
					s-1.064-7.57,0.608-11.054s4.601-6.106,8.247-7.387c3.645-1.28,7.571-1.064,11.054,0.608c3.482,1.673,6.105,4.602,7.387,8.247
					c1.28,3.645,1.064,7.57-0.608,11.054s-4.601,6.106-8.247,7.387C168.595,175.606,166.974,175.88,165.359,175.88z
					 M165.381,147.827c-1.516,0-3.036,0.257-4.508,0.774c-3.42,1.201-6.168,3.662-7.738,6.931s-1.772,6.952-0.571,10.373l0,0
					c1.201,3.421,3.663,6.169,6.931,7.738c3.269,1.57,6.953,1.773,10.373,0.57c3.421-1.201,6.17-3.662,7.738-6.931
					c1.57-3.269,1.772-6.952,0.57-10.373c-1.201-3.421-3.662-6.169-6.931-7.738C169.384,148.277,167.387,147.827,165.381,147.827z"
					/>
				<circle fill="#DCE9FF" cx="144.641" cy="168.688" r="14.019"/>
			</g>
		</g>
	</g>
</g>
<g id="Designed_by_Freepik">
</g>
</svg>
