<?xml version="1.0"?>
<svg xmlns="http://www.w3.org/2000/svg" id="Layer_1" data-name="Layer 1" viewBox="0 0 512 512" width="512" height="512"><title>Piggy bank Dollar</title><path d="M81,291.16c0-2.205,2.293-4.16,4.5-4.16h29.37a5.925,5.925,0,0,0,4.892-2.446c13.35-18.8,33.563-34.2,58.454-44.619a5.962,5.962,0,0,0,3.221-3.2,73.361,73.361,0,0,0,2.963-48.095,63.575,63.575,0,0,1,36.757,18.192,62.26,62.26,0,0,1,11.8,15.915,5.994,5.994,0,0,0,5.707,3.275c2.689-.161,29.691-.082,47.215.011a111.4,111.4,0,0,1,94.19,52,111.571,111.571,0,0,0-104.19-71.995c-17.524-.093-44.526-.172-47.215-.011a5.994,5.994,0,0,1-5.707-3.275,62.26,62.26,0,0,0-11.8-15.915A63.575,63.575,0,0,0,174.4,168.636a73.361,73.361,0,0,1-2.963,48.1,5.962,5.962,0,0,1-3.221,3.2c-24.891,10.415-45.1,25.818-58.454,44.619A5.925,5.925,0,0,1,104.869,267H75.5c-2.206,0-4.5,1.955-4.5,4.16v73.49A4.771,4.771,0,0,0,75.5,349H81Z" style="fill:#d4e1f4"/><path d="M286,162.03A53.96,53.96,0,0,1,243.169,75.2a53.972,53.972,0,1,0,75.662,75.663A53.712,53.712,0,0,1,286,162.03Z" style="fill:#d4e1f4"/><path d="M75.5,361H91.82c8.341,16,21.18,30.551,37.18,42.641V443.97c0,8.822,7.677,16.03,16.5,16.03h40c8.823,0,15.5-7.208,15.5-16.03v-9.49A14.867,14.867,0,0,1,215.5,420h57.77c7.72,0,13.731,6.76,13.731,14.48v9.49A16.276,16.276,0,0,0,303.269,460h40A15.816,15.816,0,0,0,359,443.97v-47.3C383,376.279,396.786,351,398.966,323h4.3A7.075,7.075,0,0,1,410,329.9v6.166C410,346.255,418.04,355,428.23,355H446.5a6,6,0,0,0,0-12H428.23c-3.573,0-6.23-3.362-6.23-6.936V329.9A19.078,19.078,0,0,0,403.269,311h-4.144c-3.137-65-57.217-117.179-123.212-117.179-3.827-.02-33.044-.064-44.076.037A77.3,77.3,0,0,0,165.9,156.064a6.017,6.017,0,0,0-5.659,8.012l1.374,3.907a61.193,61.193,0,0,1-.374,41.84C136.443,220.613,116,236,101.821,255H75.5c-8.822,0-16.5,7.338-16.5,16.16v73.49A16.755,16.755,0,0,0,75.5,361ZM71,271.16c0-2.205,2.293-4.16,4.5-4.16h29.37a5.925,5.925,0,0,0,4.892-2.446c13.35-18.8,33.563-34.2,58.454-44.619a5.962,5.962,0,0,0,3.221-3.2,73.361,73.361,0,0,0,2.963-48.095,63.575,63.575,0,0,1,36.757,18.192,62.26,62.26,0,0,1,11.8,15.915,5.994,5.994,0,0,0,5.707,3.275c2.689-.161,29.691-.082,47.215.011A111.513,111.513,0,0,1,387.266,316.571c-.235,26.874-13.782,52.665-37.96,72.7A6.136,6.136,0,0,0,347,393.89v50.08a3.809,3.809,0,0,1-3.731,4.03h-40A4.268,4.268,0,0,1,299,443.97v-9.49c0-14.336-11.395-26.48-25.731-26.48H215.5A26.875,26.875,0,0,0,189,434.48v9.49c0,2.206-1.295,4.03-3.5,4.03h-40c-2.206,0-4.5-1.824-4.5-4.03v-43.4a5.779,5.779,0,0,0-2.294-4.9c-17.106-12.058-30.114-26.95-37.853-43.4a5.663,5.663,0,0,0-5.3-3.27H75.5a4.771,4.771,0,0,1-4.5-4.35Z" style="fill:#0635c9"/><path d="M148.892,307.654a23.026,23.026,0,0,0,23-23,6,6,0,0,0-12,0,11,11,0,0,1-22,0,6,6,0,0,0-12,0A23.026,23.026,0,0,0,148.892,307.654Z" style="fill:#0635c9"/><path d="M246,245h53.346a6,6,0,0,0,0-12H246a6,6,0,0,0,0,12Z" style="fill:#0635c9"/><path d="M276,184.03a66,66,0,1,0-66-66A66.075,66.075,0,0,0,276,184.03Zm0-120a54,54,0,1,1-54,54A54.061,54.061,0,0,1,276,64.03Z" style="fill:#1ae5be"/><path d="M276.1,139.931c-.032,0-.063-.005-.1-.005s-.064,0-.1.005a8.121,8.121,0,0,1-8.018-8.109,6,6,0,1,0-12,0A20.148,20.148,0,0,0,270,151.02v3.313a6,6,0,0,0,12,0V151.02a20.113,20.113,0,0,0-6-39.311,8.114,8.114,0,1,1,8.114-8.113,6,6,0,0,0,12,0A20.15,20.15,0,0,0,282,84.4V81.728a6,6,0,0,0-12,0V84.4a20.114,20.114,0,0,0,6,39.312,8.111,8.111,0,0,1,.1,16.222Z" style="fill:#1ae5be"/></svg>
